<svg width="1200" height="630" xmlns="http://www.w3.org/2000/svg">
  <!-- Background -->
  <defs>
    <linearGradient id="bgGradient" x1="0%" y1="0%" x2="100%" y2="100%">
      <stop offset="0%" style="stop-color:#0a192f;stop-opacity:1" />
      <stop offset="100%" style="stop-color:#112240;stop-opacity:1" />
    </linearGradient>
    
    <radialGradient id="glow1" cx="30%" cy="30%">
      <stop offset="0%" style="stop-color:#64ffda;stop-opacity:0.15" />
      <stop offset="100%" style="stop-color:#64ffda;stop-opacity:0" />
    </radialGradient>
    
    <radialGradient id="glow2" cx="70%" cy="70%">
      <stop offset="0%" style="stop-color:#64ffda;stop-opacity:0.1" />
      <stop offset="100%" style="stop-color:#64ffda;stop-opacity:0" />
    </radialGradient>
  </defs>
  
  <!-- Background with gradient -->
  <rect width="1200" height="630" fill="url(#bgGradient)"/>
  
  <!-- Glowing effects -->
  <circle cx="200" cy="200" r="300" fill="url(#glow1)"/>
  <circle cx="1000" cy="500" r="250" fill="url(#glow2)"/>
  
  <!-- Grid pattern -->
  <g opacity="0.05" stroke="#64ffda" stroke-width="1" fill="none">
    <line x1="0" y1="157.5" x2="1200" y2="157.5"/>
    <line x1="0" y1="315" x2="1200" y2="315"/>
    <line x1="0" y1="472.5" x2="1200" y2="472.5"/>
    <line x1="300" y1="0" x2="300" y2="630"/>
    <line x1="600" y1="0" x2="600" y2="630"/>
    <line x1="900" y1="0" x2="900" y2="630"/>
  </g>
  
  <!-- Browser Window Frame -->
  <g transform="translate(100, 80)">
    <!-- Browser chrome -->
    <rect x="0" y="0" width="1000" height="40" fill="#1e2a3a" rx="8" ry="8"/>
    <rect x="0" y="35" width="1000" height="470" fill="#0d1829" rx="0" ry="0"/>
    
    <!-- Browser dots -->
    <circle cx="20" cy="20" r="6" fill="#ff5f56"/>
    <circle cx="40" cy="20" r="6" fill="#ffbd2e"/>
    <circle cx="60" cy="20" r="6" fill="#27c93f"/>
    
    <!-- URL bar -->
    <rect x="90" y="12" width="820" height="16" fill="#0a192f" rx="8" ry="8"/>
    <text x="105" y="23" font-family="monospace" font-size="11" fill="#8892b0">https://deepakchandra.github.io</text>
    
    <!-- Content -->
    <!-- Navigation -->
    <g transform="translate(40, 70)">
      <text x="0" y="0" font-family="monospace" font-size="20" font-weight="bold" fill="#64ffda">&lt;DC /&gt;</text>
      <text x="750" y="0" font-family="monospace" font-size="12" fill="#8892b0">About</text>
      <text x="810" y="0" font-family="monospace" font-size="12" fill="#8892b0">Projects</text>
      <text x="880" y="0" font-family="monospace" font-size="12" fill="#8892b0">Contact</text>
    </g>
    
    <!-- Hero text -->
    <g transform="translate(40, 140)">
      <text x="0" y="0" font-family="Arial, sans-serif" font-size="52" font-weight="bold" fill="#ccd6f6">
        Deepak Chandra Poram
      </text>
      <text x="0" y="50" font-family="Arial, sans-serif" font-size="32" fill="#8892b0">
        Software Developer &amp; Problem Solver
      </text>
      <text x="0" y="100" font-family="Arial, sans-serif" font-size="15" fill="#8892b0">
        I build efficient, scalable applications using Java, Spring Boot,
      </text>
      <text x="0" y="122" font-family="Arial, sans-serif" font-size="15" fill="#8892b0">
        and modern web technologies.
      </text>
      
      <!-- CTA Button -->
      <rect x="0" y="160" width="160" height="45" fill="none" stroke="#64ffda" stroke-width="2" rx="2"/>
      <text x="80" y="188" font-family="monospace" font-size="13" fill="#64ffda" text-anchor="middle">Get In Touch</text>
      
      <rect x="180" y="160" width="150" height="45" fill="none" stroke="#64ffda" stroke-width="2" rx="2"/>
      <text x="255" y="188" font-family="monospace" font-size="13" fill="#64ffda" text-anchor="middle">View Work</text>
    </g>
    
    <!-- Project Cards Preview -->
    <g transform="translate(40, 360)">
      <!-- Card 1 -->
      <rect x="0" y="0" width="280" height="100" fill="#112240" stroke="#64ffda" stroke-width="1" rx="4"/>
      <text x="15" y="30" font-size="28" fill="#64ffda">📊</text>
      <text x="60" y="35" font-family="Arial, sans-serif" font-size="16" font-weight="bold" fill="#ccd6f6">
        Employee Management
      </text>
      <text x="15" y="60" font-family="Arial, sans-serif" font-size="11" fill="#8892b0">
        Full-stack app with Spring Boot
      </text>
      <text x="15" y="85" font-family="monospace" font-size="9" fill="#64ffda">Java • MySQL • REST API</text>
      
      <!-- Card 2 -->
      <rect x="300" y="0" width="280" height="100" fill="#112240" stroke="#64ffda" stroke-width="1" rx="4"/>
      <text x="315" y="30" font-size="28" fill="#64ffda">🛡️</text>
      <text x="360" y="35" font-family="Arial, sans-serif" font-size="16" font-weight="bold" fill="#ccd6f6">
        Cyber Threat Detection
      </text>
      <text x="315" y="60" font-family="Arial, sans-serif" font-size="11" fill="#8892b0">
        AI-enhanced SIEM system
      </text>
      <text x="315" y="85" font-family="monospace" font-size="9" fill="#64ffda">AI/ML • Spring Boot • MySQL</text>
      
      <!-- Card 3 -->
      <rect x="600" y="0" width="280" height="100" fill="#112240" stroke="#64ffda" stroke-width="1" rx="4"/>
      <text x="615" y="30" font-size="28" fill="#64ffda">⚡</text>
      <text x="660" y="35" font-family="Arial, sans-serif" font-size="16" font-weight="bold" fill="#ccd6f6">
        Salesforce Solutions
      </text>
      <text x="615" y="60" font-family="Arial, sans-serif" font-size="11" fill="#8892b0">
        Custom LWC components
      </text>
      <text x="615" y="85" font-family="monospace" font-size="9" fill="#64ffda">Apex • LWC • Flows</text>
    </g>
  </g>
  
  <!-- Bottom badge -->
  <g transform="translate(50, 560)">
    <rect x="0" y="0" width="200" height="35" fill="#64ffda" rx="17.5"/>
    <text x="100" y="23" font-family="monospace" font-size="13" font-weight="bold" fill="#0a192f" text-anchor="middle">
      View Live Portfolio →
    </text>
  </g>
  
  <!-- Tech stack icons -->
  <g transform="translate(900, 565)">
    <rect x="0" y="0" width="70" height="28" fill="#112240" stroke="#64ffda" stroke-width="1" rx="4"/>
    <text x="35" y="19" font-family="monospace" font-size="11" fill="#64ffda" text-anchor="middle">Java</text>
    
    <rect x="80" y="0" width="90" height="28" fill="#112240" stroke="#64ffda" stroke-width="1" rx="4"/>
    <text x="125" y="19" font-family="monospace" font-size="11" fill="#64ffda" text-anchor="middle">Spring</text>
    
    <rect x="180" y="0" width="80" height="28" fill="#112240" stroke="#64ffda" stroke-width="1" rx="4"/>
    <text x="220" y="19" font-family="monospace" font-size="11" fill="#64ffda" text-anchor="middle">MySQL</text>
  </g>
</svg>